<mxfile host="app.diagrams.net" agent="Mozilla/5.0 (Windows NT 10.0; Win64; x64; rv:142.0) Gecko/20100101 Firefox/142.0" version="28.2.7">
  <diagram name="Сторінка-1" id="6t_dXLsArdaerq1BrB29">
    <mxGraphModel dx="1230" dy="563" grid="1" gridSize="10" guides="1" tooltips="1" connect="1" arrows="1" fold="1" page="1" pageScale="1" pageWidth="1169" pageHeight="827" math="0" shadow="0">
      <root>
        <mxCell id="0" />
        <mxCell id="1" parent="0" />
        <mxCell id="8WIHh_5xgrCgoOvj12BP-19" style="edgeStyle=orthogonalEdgeStyle;rounded=0;orthogonalLoop=1;jettySize=auto;html=1;entryX=0.5;entryY=0;entryDx=0;entryDy=0;" edge="1" parent="1" source="8WIHh_5xgrCgoOvj12BP-1" target="8WIHh_5xgrCgoOvj12BP-2">
          <mxGeometry relative="1" as="geometry" />
        </mxCell>
        <mxCell id="8WIHh_5xgrCgoOvj12BP-1" value="" style="ellipse;fillColor=strokeColor;html=1;" vertex="1" parent="1">
          <mxGeometry x="80" y="40" width="40" height="40" as="geometry" />
        </mxCell>
        <mxCell id="8WIHh_5xgrCgoOvj12BP-20" style="edgeStyle=orthogonalEdgeStyle;rounded=0;orthogonalLoop=1;jettySize=auto;html=1;entryX=0.5;entryY=0;entryDx=0;entryDy=0;" edge="1" parent="1" source="8WIHh_5xgrCgoOvj12BP-2" target="8WIHh_5xgrCgoOvj12BP-3">
          <mxGeometry relative="1" as="geometry" />
        </mxCell>
        <mxCell id="8WIHh_5xgrCgoOvj12BP-2" value="xp, xk, dx, eps" style="rounded=1;whiteSpace=wrap;html=1;" vertex="1" parent="1">
          <mxGeometry x="40" y="100" width="120" height="40" as="geometry" />
        </mxCell>
        <mxCell id="8WIHh_5xgrCgoOvj12BP-21" style="edgeStyle=orthogonalEdgeStyle;rounded=0;orthogonalLoop=1;jettySize=auto;html=1;entryX=0.5;entryY=0;entryDx=0;entryDy=0;" edge="1" parent="1" source="8WIHh_5xgrCgoOvj12BP-3" target="8WIHh_5xgrCgoOvj12BP-4">
          <mxGeometry relative="1" as="geometry" />
        </mxCell>
        <mxCell id="8WIHh_5xgrCgoOvj12BP-3" value="x = xp" style="rounded=1;whiteSpace=wrap;html=1;" vertex="1" parent="1">
          <mxGeometry x="65" y="160" width="70" height="40" as="geometry" />
        </mxCell>
        <mxCell id="8WIHh_5xgrCgoOvj12BP-22" style="edgeStyle=orthogonalEdgeStyle;rounded=0;orthogonalLoop=1;jettySize=auto;html=1;entryX=0.5;entryY=0;entryDx=0;entryDy=0;" edge="1" parent="1" source="8WIHh_5xgrCgoOvj12BP-4" target="8WIHh_5xgrCgoOvj12BP-5">
          <mxGeometry relative="1" as="geometry" />
        </mxCell>
        <mxCell id="8WIHh_5xgrCgoOvj12BP-4" value="" style="rhombus;whiteSpace=wrap;html=1;" vertex="1" parent="1">
          <mxGeometry x="80" y="220" width="40" height="40" as="geometry" />
        </mxCell>
        <mxCell id="8WIHh_5xgrCgoOvj12BP-23" style="edgeStyle=orthogonalEdgeStyle;rounded=0;orthogonalLoop=1;jettySize=auto;html=1;entryX=0.5;entryY=0;entryDx=0;entryDy=0;" edge="1" parent="1" source="8WIHh_5xgrCgoOvj12BP-5" target="8WIHh_5xgrCgoOvj12BP-6">
          <mxGeometry relative="1" as="geometry" />
        </mxCell>
        <mxCell id="8WIHh_5xgrCgoOvj12BP-5" value="n = 0" style="rounded=1;whiteSpace=wrap;html=1;" vertex="1" parent="1">
          <mxGeometry x="65" y="280" width="70" height="40" as="geometry" />
        </mxCell>
        <mxCell id="8WIHh_5xgrCgoOvj12BP-24" style="edgeStyle=orthogonalEdgeStyle;rounded=0;orthogonalLoop=1;jettySize=auto;html=1;entryX=0.5;entryY=0;entryDx=0;entryDy=0;" edge="1" parent="1" source="8WIHh_5xgrCgoOvj12BP-6" target="8WIHh_5xgrCgoOvj12BP-7">
          <mxGeometry relative="1" as="geometry" />
        </mxCell>
        <mxCell id="8WIHh_5xgrCgoOvj12BP-6" value="a = x" style="rounded=1;whiteSpace=wrap;html=1;" vertex="1" parent="1">
          <mxGeometry x="65" y="340" width="70" height="40" as="geometry" />
        </mxCell>
        <mxCell id="8WIHh_5xgrCgoOvj12BP-25" style="edgeStyle=orthogonalEdgeStyle;rounded=0;orthogonalLoop=1;jettySize=auto;html=1;entryX=0.5;entryY=0;entryDx=0;entryDy=0;" edge="1" parent="1" source="8WIHh_5xgrCgoOvj12BP-7" target="8WIHh_5xgrCgoOvj12BP-8">
          <mxGeometry relative="1" as="geometry" />
        </mxCell>
        <mxCell id="8WIHh_5xgrCgoOvj12BP-7" value="S = a" style="rounded=1;whiteSpace=wrap;html=1;" vertex="1" parent="1">
          <mxGeometry x="65" y="400" width="70" height="40" as="geometry" />
        </mxCell>
        <mxCell id="8WIHh_5xgrCgoOvj12BP-26" style="edgeStyle=orthogonalEdgeStyle;rounded=0;orthogonalLoop=1;jettySize=auto;html=1;entryX=0.5;entryY=0;entryDx=0;entryDy=0;" edge="1" parent="1" source="8WIHh_5xgrCgoOvj12BP-8" target="8WIHh_5xgrCgoOvj12BP-9">
          <mxGeometry relative="1" as="geometry" />
        </mxCell>
        <mxCell id="8WIHh_5xgrCgoOvj12BP-8" value="" style="rhombus;whiteSpace=wrap;html=1;" vertex="1" parent="1">
          <mxGeometry x="80" y="460" width="40" height="40" as="geometry" />
        </mxCell>
        <mxCell id="8WIHh_5xgrCgoOvj12BP-27" style="edgeStyle=orthogonalEdgeStyle;rounded=0;orthogonalLoop=1;jettySize=auto;html=1;entryX=0.5;entryY=0;entryDx=0;entryDy=0;" edge="1" parent="1" source="8WIHh_5xgrCgoOvj12BP-9" target="8WIHh_5xgrCgoOvj12BP-11">
          <mxGeometry relative="1" as="geometry" />
        </mxCell>
        <mxCell id="8WIHh_5xgrCgoOvj12BP-9" value="n++" style="rounded=1;whiteSpace=wrap;html=1;" vertex="1" parent="1">
          <mxGeometry x="65" y="520" width="70" height="40" as="geometry" />
        </mxCell>
        <mxCell id="8WIHh_5xgrCgoOvj12BP-28" style="edgeStyle=orthogonalEdgeStyle;rounded=0;orthogonalLoop=1;jettySize=auto;html=1;entryX=0.5;entryY=0;entryDx=0;entryDy=0;" edge="1" parent="1" source="8WIHh_5xgrCgoOvj12BP-11" target="8WIHh_5xgrCgoOvj12BP-12">
          <mxGeometry relative="1" as="geometry" />
        </mxCell>
        <mxCell id="8WIHh_5xgrCgoOvj12BP-11" value="&#xa;R = pow((2.0 * n - 1), 2) * x * x / ((2.0 * n) * (2.0 * n + 1))&#xa;&#xa;" style="rounded=1;whiteSpace=wrap;html=1;" vertex="1" parent="1">
          <mxGeometry x="15" y="580" width="170" height="40" as="geometry" />
        </mxCell>
        <mxCell id="8WIHh_5xgrCgoOvj12BP-29" style="edgeStyle=orthogonalEdgeStyle;rounded=0;orthogonalLoop=1;jettySize=auto;html=1;entryX=0.5;entryY=0;entryDx=0;entryDy=0;" edge="1" parent="1" source="8WIHh_5xgrCgoOvj12BP-12" target="8WIHh_5xgrCgoOvj12BP-13">
          <mxGeometry relative="1" as="geometry" />
        </mxCell>
        <mxCell id="8WIHh_5xgrCgoOvj12BP-12" value="a *= R" style="rounded=1;whiteSpace=wrap;html=1;" vertex="1" parent="1">
          <mxGeometry x="65" y="640" width="70" height="40" as="geometry" />
        </mxCell>
        <mxCell id="8WIHh_5xgrCgoOvj12BP-30" style="edgeStyle=orthogonalEdgeStyle;rounded=0;orthogonalLoop=1;jettySize=auto;html=1;entryX=0.5;entryY=0;entryDx=0;entryDy=0;" edge="1" parent="1" source="8WIHh_5xgrCgoOvj12BP-13" target="8WIHh_5xgrCgoOvj12BP-14">
          <mxGeometry relative="1" as="geometry" />
        </mxCell>
        <mxCell id="8WIHh_5xgrCgoOvj12BP-13" value="S += a" style="rounded=1;whiteSpace=wrap;html=1;" vertex="1" parent="1">
          <mxGeometry x="65" y="700" width="70" height="40" as="geometry" />
        </mxCell>
        <mxCell id="8WIHh_5xgrCgoOvj12BP-31" style="edgeStyle=orthogonalEdgeStyle;rounded=0;orthogonalLoop=1;jettySize=auto;html=1;entryX=0.5;entryY=0;entryDx=0;entryDy=0;" edge="1" parent="1" source="8WIHh_5xgrCgoOvj12BP-14" target="8WIHh_5xgrCgoOvj12BP-15">
          <mxGeometry relative="1" as="geometry" />
        </mxCell>
        <mxCell id="8WIHh_5xgrCgoOvj12BP-35" style="edgeStyle=orthogonalEdgeStyle;rounded=0;orthogonalLoop=1;jettySize=auto;html=1;entryX=1;entryY=0.5;entryDx=0;entryDy=0;" edge="1" parent="1" source="8WIHh_5xgrCgoOvj12BP-14" target="8WIHh_5xgrCgoOvj12BP-8">
          <mxGeometry relative="1" as="geometry">
            <mxPoint x="240" y="480" as="targetPoint" />
            <Array as="points">
              <mxPoint x="220" y="780" />
              <mxPoint x="220" y="480" />
            </Array>
          </mxGeometry>
        </mxCell>
        <mxCell id="8WIHh_5xgrCgoOvj12BP-14" value="" style="rhombus;whiteSpace=wrap;html=1;" vertex="1" parent="1">
          <mxGeometry x="80" y="760" width="40" height="40" as="geometry" />
        </mxCell>
        <mxCell id="8WIHh_5xgrCgoOvj12BP-32" style="edgeStyle=orthogonalEdgeStyle;rounded=0;orthogonalLoop=1;jettySize=auto;html=1;entryX=0.5;entryY=0;entryDx=0;entryDy=0;" edge="1" parent="1" source="8WIHh_5xgrCgoOvj12BP-15" target="8WIHh_5xgrCgoOvj12BP-16">
          <mxGeometry relative="1" as="geometry" />
        </mxCell>
        <mxCell id="8WIHh_5xgrCgoOvj12BP-15" value="x += dx" style="rounded=1;whiteSpace=wrap;html=1;" vertex="1" parent="1">
          <mxGeometry x="65" y="820" width="70" height="40" as="geometry" />
        </mxCell>
        <mxCell id="8WIHh_5xgrCgoOvj12BP-33" style="edgeStyle=orthogonalEdgeStyle;rounded=0;orthogonalLoop=1;jettySize=auto;html=1;entryX=0.5;entryY=0;entryDx=0;entryDy=0;" edge="1" parent="1" source="8WIHh_5xgrCgoOvj12BP-16" target="8WIHh_5xgrCgoOvj12BP-17">
          <mxGeometry relative="1" as="geometry" />
        </mxCell>
        <mxCell id="8WIHh_5xgrCgoOvj12BP-36" style="edgeStyle=orthogonalEdgeStyle;rounded=0;orthogonalLoop=1;jettySize=auto;html=1;entryX=1;entryY=0.5;entryDx=0;entryDy=0;" edge="1" parent="1" source="8WIHh_5xgrCgoOvj12BP-16" target="8WIHh_5xgrCgoOvj12BP-4">
          <mxGeometry relative="1" as="geometry">
            <mxPoint x="280" y="239" as="targetPoint" />
            <Array as="points">
              <mxPoint x="280" y="900" />
              <mxPoint x="280" y="240" />
            </Array>
          </mxGeometry>
        </mxCell>
        <mxCell id="8WIHh_5xgrCgoOvj12BP-16" value="" style="rhombus;whiteSpace=wrap;html=1;" vertex="1" parent="1">
          <mxGeometry x="80" y="880" width="40" height="40" as="geometry" />
        </mxCell>
        <mxCell id="8WIHh_5xgrCgoOvj12BP-34" style="edgeStyle=orthogonalEdgeStyle;rounded=0;orthogonalLoop=1;jettySize=auto;html=1;entryX=0.5;entryY=0;entryDx=0;entryDy=0;" edge="1" parent="1" source="8WIHh_5xgrCgoOvj12BP-17" target="8WIHh_5xgrCgoOvj12BP-18">
          <mxGeometry relative="1" as="geometry" />
        </mxCell>
        <mxCell id="8WIHh_5xgrCgoOvj12BP-17" value="&lt;br&gt;вивід x, asin(x), S, n&lt;div&gt;&lt;br/&gt;&lt;/div&gt;" style="rounded=1;whiteSpace=wrap;html=1;" vertex="1" parent="1">
          <mxGeometry x="15" y="940" width="170" height="40" as="geometry" />
        </mxCell>
        <mxCell id="8WIHh_5xgrCgoOvj12BP-18" value="" style="ellipse;html=1;shape=endState;fillColor=strokeColor;" vertex="1" parent="1">
          <mxGeometry x="80" y="1000" width="40" height="40" as="geometry" />
        </mxCell>
        <mxCell id="8WIHh_5xgrCgoOvj12BP-37" value="fabs(a) &amp;gt;= eps" style="text;whiteSpace=wrap;html=1;" vertex="1" parent="1">
          <mxGeometry x="120" y="750" width="80" height="20" as="geometry" />
        </mxCell>
        <mxCell id="8WIHh_5xgrCgoOvj12BP-38" value="x &amp;lt;= xk + 1e - 9" style="text;whiteSpace=wrap;html=1;" vertex="1" parent="1">
          <mxGeometry x="120" y="870" width="90" height="30" as="geometry" />
        </mxCell>
      </root>
    </mxGraphModel>
  </diagram>
</mxfile>
